<?xml version="1.0" encoding="UTF-8"?>
<svg width="25px" height="25px" viewBox="0 0 25 25" version="1.1" xmlns="http://www.w3.org/2000/svg" xmlns:xlink="http://www.w3.org/1999/xlink">
    <!-- Generator: Sketch 48.1 (47250) - http://www.bohemiancoding.com/sketch -->
    <title>Fill 6</title>
    <desc>Created with Sketch.</desc>
    <defs></defs>
    <g id="Symbols" stroke="none" stroke-width="1" fill="none" fill-rule="evenodd">
        <path d="M22.2960602,14.3947429 L16.2155789,14.3947429 C15.0943759,14.3947429 14.1877895,15.3003669 14.1877895,16.4215699 L14.1877895,22.5020511 C14.1877895,23.6203669 15.0943759,24.5288782 16.2155789,24.5288782 L22.2960602,24.5288782 C23.4163008,24.5288782 24.3219248,23.6203669 24.3219248,22.5020511 L24.3219248,16.4215699 C24.3219248,15.3022917 23.4163008,14.3947429 22.2960602,14.3947429 M8.10827068,14.3947429 L2.02682707,14.3947429 C0.90562406,14.3947429 0,15.3003669 0,16.4215699 L0,22.5020511 C0,23.6203669 0.90562406,24.5288782 2.02682707,24.5288782 L8.10827068,24.5288782 C9.22851128,24.5288782 10.1341353,23.6203669 10.1341353,22.5020511 L10.1341353,16.4215699 C10.1341353,15.3022917 9.22851128,14.3947429 8.10827068,14.3947429 M22.2960602,0.206953383 L16.2155789,0.206953383 C15.0943759,0.206953383 14.1877895,1.11257744 14.1877895,2.23378045 L14.1877895,8.31426165 C14.1877895,9.43257744 15.0943759,10.3410887 16.2155789,10.3410887 L22.2960602,10.3410887 C23.4163008,10.3410887 24.3219248,9.43257744 24.3219248,8.31426165 L24.3219248,2.23378045 C24.3219248,1.11450226 23.4163008,0.206953383 22.2960602,0.206953383 M8.10827068,0.206953383 L2.02682707,0.206953383 C0.90562406,0.206953383 0,1.11257744 0,2.23378045 L0,8.31426165 C0,9.43257744 0.90562406,10.3410887 2.02682707,10.3410887 L8.10827068,10.3410887 C9.22851128,10.3410887 10.1341353,9.43257744 10.1341353,8.31426165 L10.1341353,2.23378045 C10.1341353,1.11450226 9.22851128,0.206953383 8.10827068,0.206953383" id="Fill-6" fill="#FFFFFF"></path>
    </g>
</svg>