<?xml version="1.0" encoding="UTF-8"?>
<svg width="26px" height="25px" viewBox="0 0 26 25" version="1.1" xmlns="http://www.w3.org/2000/svg" xmlns:xlink="http://www.w3.org/1999/xlink">
    <!-- Generator: Sketch 48.1 (47250) - http://www.bohemiancoding.com/sketch -->
    <title>excel</title>
    <desc>Created with Sketch.</desc>
    <defs></defs>
    <g id="launch-bar-/-app-/-excel" stroke="none" stroke-width="1" fill="none" fill-rule="evenodd" transform="translate(-6.000000, -7.000000)">
        <path d="M19.5980811,7 L21.3524816,7 C21.3524816,7.77616279 21.3524816,8.5494186 21.3524816,9.3255814 C24.3089714,9.3255814 27.2654613,9.33139535 30.2219511,9.31686047 C30.7210987,9.3372093 31.2704565,9.30232558 31.7046263,9.59593023 C32.0088405,10.0261628 31.9733981,10.5726744 31.9940729,11.0668605 C31.9793052,16.1133721 31.9852123,21.1569767 31.9881658,26.2005814 C31.9733981,27.0465116 32.0679113,27.9098837 31.8877456,28.744186 C31.7696041,29.3488372 31.03122,29.3633721 30.5379795,29.3837209 C27.4781159,29.3924419 24.4152988,29.377907 21.3524816,29.3837209 C21.3524816,30.255814 21.3524816,31.127907 21.3524816,32 L19.5183356,32 C15.0171463,31.1947674 10.5070964,30.4505814 6,29.6744186 C6,22.8924419 6,16.1104651 6,9.32848837 C10.5336782,8.55232558 15.0673564,7.7877907 19.5980811,7 Z M21.3524816,10.1976744 C21.3524816,10.7790698 21.3524816,11.3604651 21.3524816,11.9418605 C22.1410758,11.9418605 22.9267165,11.9418605 23.7153107,11.9418605 C23.7153107,12.619186 23.7153107,13.2994186 23.7153107,13.9767442 C22.9267165,13.9767442 22.1410758,13.9767442 21.3524816,13.9767442 C21.3524816,14.3633721 21.3524816,14.752907 21.3524816,15.1395349 C22.1410758,15.1395349 22.9267165,15.1395349 23.7153107,15.1395349 C23.7153107,15.8168605 23.7153107,16.497093 23.7153107,17.1744186 C22.9267165,17.1744186 22.1410758,17.1744186 21.3524816,17.1744186 C21.3524816,17.5610465 21.3524816,17.9505814 21.3524816,18.3372093 C22.1410758,18.3372093 22.9267165,18.3372093 23.7153107,18.3372093 C23.7153107,19.0145349 23.7153107,19.6947674 23.7153107,20.372093 C22.9267165,20.372093 22.1410758,20.372093 21.3524816,20.372093 C21.3524816,20.7587209 21.3524816,21.1482558 21.3524816,21.5348837 C22.1410758,21.5348837 22.9267165,21.5348837 23.7153107,21.5348837 C23.7153107,22.2122093 23.7153107,22.8924419 23.7153107,23.5697674 C22.9267165,23.5697674 22.1410758,23.5697674 21.3524816,23.5697674 C21.3524816,23.9563953 21.3524816,24.3459302 21.3524816,24.7325581 C22.1410758,24.7325581 22.9267165,24.7325581 23.7153107,24.7325581 C23.7153107,25.4098837 23.7153107,26.0901163 23.7153107,26.7674419 C22.9267165,26.7674419 22.1410758,26.7674419 21.3524816,26.7674419 C21.3524816,27.3488372 21.3524816,27.9302326 21.3524816,28.5116279 C24.6013715,28.5116279 27.8502615,28.5116279 31.0991514,28.5116279 C31.0991514,22.4069767 31.0991514,16.3023256 31.0991514,10.1976744 C27.8502615,10.1976744 24.6013715,10.1976744 21.3524816,10.1976744 Z M14.7483745,14.6656977 C14.2492269,15.8604651 13.6673802,17.0232558 13.2775134,18.2587209 C12.9142284,17.0930233 12.432802,15.9709302 11.9927251,14.8343023 C11.3429471,14.869186 10.6931692,14.9069767 10.0433912,14.9447674 C10.7286116,16.4331395 11.4581351,17.9011628 12.1226807,19.3982558 C11.3399936,20.8517442 10.6075166,22.3255814 9.84845778,23.7877907 C10.4952822,23.8139535 11.1421067,23.8401163 11.7889311,23.8488372 C12.2496828,22.6918605 12.8226688,21.5784884 13.2243498,20.3982558 C13.5846812,21.6656977 14.1960632,22.8372093 14.6981644,24.0494186 C15.4099666,24.0988372 16.1188153,24.1424419 16.8306176,24.1831395 C16.0154416,22.5552326 15.1854979,20.9389535 14.3732754,19.3110465 C15.1766372,17.7267442 15.968185,16.1366279 16.7567792,14.5465116 C16.0863264,14.5784884 15.4158737,14.619186 14.7483745,14.6656977 Z M24.8967252,11.9418605 C26.2760266,11.9418605 27.6523745,11.9418605 29.031676,11.9418605 C29.031676,12.619186 29.031676,13.2994186 29.031676,13.9767442 C27.6523745,13.9767442 26.2760266,13.9767442 24.8967252,13.9767442 C24.8967252,13.2994186 24.8967252,12.619186 24.8967252,11.9418605 Z M24.8967252,15.1395349 C26.2760266,15.1395349 27.6523745,15.1395349 29.031676,15.1395349 C29.031676,15.8168605 29.031676,16.497093 29.031676,17.1744186 C27.6523745,17.1744186 26.2760266,17.1744186 24.8967252,17.1744186 C24.8967252,16.497093 24.8967252,15.8168605 24.8967252,15.1395349 Z M24.8967252,18.3372093 C26.2760266,18.3372093 27.6523745,18.3372093 29.031676,18.3372093 C29.031676,19.0145349 29.031676,19.6947674 29.031676,20.372093 C27.6523745,20.372093 26.2760266,20.372093 24.8967252,20.372093 C24.8967252,19.6947674 24.8967252,19.0145349 24.8967252,18.3372093 Z M24.8967252,21.5348837 C26.2760266,21.5348837 27.6523745,21.5348837 29.031676,21.5348837 C29.031676,22.2122093 29.031676,22.8924419 29.031676,23.5697674 C27.6523745,23.5697674 26.2760266,23.5697674 24.8967252,23.5697674 C24.8967252,22.8924419 24.8967252,22.2122093 24.8967252,21.5348837 Z M24.8967252,24.7325581 C26.2760266,24.7325581 27.6523745,24.7325581 29.031676,24.7325581 C29.031676,25.4098837 29.031676,26.0901163 29.031676,26.7674419 C27.6523745,26.7674419 26.2760266,26.7674419 24.8967252,26.7674419 C24.8967252,26.0901163 24.8967252,25.4098837 24.8967252,24.7325581 Z" id="excel" fill="#FFFFFF" fill-rule="nonzero"></path>
    </g>
</svg>