<?xml version="1.0" encoding="UTF-8"?>
<svg width="41px" height="29px" viewBox="0 0 41 29" version="1.1" xmlns="http://www.w3.org/2000/svg" xmlns:xlink="http://www.w3.org/1999/xlink">
    <!-- Generator: Sketch 48.1 (47250) - http://www.bohemiancoding.com/sketch -->
    <title>Fill 11</title>
    <desc>Created with Sketch.</desc>
    <defs></defs>
    <g id="launch-bar-/-app-/-salesforce" stroke="none" stroke-width="1" fill="none" fill-rule="evenodd" transform="translate(-5.000000, -9.000000)">
        <path d="M29.8063634,16.7645192 C29.7727845,16.8496331 29.7496991,16.9007015 29.5776076,16.8475052 C29.5345847,16.8347382 29.4716244,16.8155875 29.3079276,16.780478 C29.1893523,16.7549438 29.0330009,16.7357932 28.8735014,16.7357932 C28.6657324,16.7357932 28.4747527,16.7634552 28.3068586,16.8187793 C28.1442111,16.8719755 27.9941557,16.9656008 27.865087,17.0975274 C27.7328704,17.2315819 27.5786176,17.427344 27.4957199,17.6688548 C27.3005429,18.2359264 27.2249905,18.8370436 27.2165958,18.8764088 L28.9049815,18.8764088 C29.0445436,18.8753449 29.0896651,18.9423721 29.0770731,19.0477006 L28.8797974,20.1616293 C28.8493666,20.3233458 28.7024592,20.3169622 28.7024592,20.3169622 L26.9637052,20.3169622 L25.7737553,27.1409723 C25.6499334,27.8463541 25.4935819,28.451727 25.310997,28.9390043 C25.1252641,29.4316012 24.9311365,29.7922715 24.6247296,30.1359191 C24.3403588,30.4561603 24.0182119,30.6912875 23.6488447,30.8264059 C23.2815762,30.9615243 22.8387554,31.0306794 22.3529116,31.0306794 C22.1220571,31.0306794 21.8733639,31.0264237 21.5795491,30.9562047 C21.3686321,30.9051363 21.2532048,30.8689629 21.0968534,30.8125749 C21.0317944,30.7891686 20.9782781,30.7061825 21.0160543,30.5987261 C21.0527812,30.4923337 21.3633854,29.6252354 21.4074576,29.5113955 C21.4620232,29.3730854 21.5984372,29.4252177 21.5984372,29.4252177 C21.6928777,29.4656468 21.7579367,29.4933088 21.882808,29.518843 C22.0087286,29.5443772 22.1787214,29.5656557 22.3067407,29.5656557 C22.5354965,29.5656557 22.7453642,29.5379937 22.9279492,29.4752221 C23.1483103,29.4007474 23.2763296,29.2720126 23.4106449,29.097529 C23.5502069,28.9166619 23.6635355,28.6677036 23.7789627,28.3357593 C23.8964886,27.9995592 24.0035212,27.5559028 24.095863,27.0164932 L25.2795169,20.3169622 L24.1126524,20.3169622 C23.9709917,20.3180261 23.9258701,20.2509989 23.9405609,20.1446065 L24.1378365,19.0317417 C24.1682673,18.8700252 24.3141254,18.8764088 24.3141254,18.8764088 L25.51247,18.8764088 L25.577529,18.5136106 C25.7569659,17.4390471 26.1126917,16.6219533 26.6373609,16.0857355 C27.1662276,15.545262 27.9196526,15.2718334 28.8735014,15.2718334 C29.1473788,15.2718334 29.3887266,15.2909841 29.591249,15.3282214 C29.7916726,15.3665227 29.9448761,15.4016322 30.1138196,15.4537645 C30.1505464,15.4686594 30.2523322,15.5197278 30.211408,15.6399512 L29.8063634,16.7645192 Z M19.077926,27.3973781 C18.1608041,27.3973781 17.2835571,27.2516204 16.3548925,26.75264 C16.1796529,26.6505032 16.0065121,26.5600697 15.8354699,26.4345266 C15.8165818,26.4068646 15.7389307,26.3760108 15.795595,26.2249335 L16.1649622,25.1876074 C16.2226758,25.0099321 16.3569911,25.0684479 16.4094581,25.1014295 C16.5112439,25.165265 16.5867963,25.2205891 16.7179636,25.2982555 C17.804029,25.9951259 18.8103447,26.0004455 19.1240969,26.0004455 C19.9373343,26.0004455 20.4410168,25.5642366 20.4410168,24.9769504 L20.4410168,24.9450327 C20.4410168,24.3045503 19.6655556,24.0630395 18.7662725,23.7832274 L18.5689968,23.7204559 C17.3339253,23.3640413 16.0170055,22.8491019 16.0170055,21.2681105 L16.0170055,21.2361928 C16.0170055,19.7349956 17.2111527,18.6870303 18.9215746,18.6870303 L19.1083568,18.6859663 C20.1125738,18.6859663 21.083212,18.9806734 21.7852195,19.4147544 C21.8492291,19.4541196 21.9121894,19.5285943 21.8754626,19.6286032 C21.8429331,19.7201007 21.5312795,20.5691123 21.495602,20.6659294 C21.430543,20.8425408 21.2490075,20.7244452 21.2490075,20.7244452 C20.6340951,20.3797337 19.6802463,20.1084331 18.8754037,20.1084331 C18.1513601,20.1084331 17.6833551,20.4978293 17.6833551,21.0276636 L17.6833551,21.0595813 C17.6833551,21.6777213 18.4829511,21.9415745 19.409517,22.2458569 L19.5690165,22.2990531 C20.7967426,22.6916411 22.1073664,23.2363703 22.1073664,24.7365035 L22.1073664,24.7684213 C22.1073664,26.3909057 20.946798,27.3973781 19.077926,27.3973781 Z M33.2555392,13.6578604 C32.0141717,11.4129802 29.6793934,9.90007991 27.0046294,9.90007991 C24.9919981,9.90007991 23.172445,10.7565389 21.8649692,12.1375126 C20.4273754,10.2309604 18.1587054,9 15.6067141,9 C11.2593045,9 7.7356256,12.5684019 7.7356256,16.9698565 C7.7356256,18.0965523 7.96752942,19.167924 8.38306749,20.1392869 C6.3609921,21.3372656 5,23.5768261 5,26.1419475 C5,29.968883 8.0294404,33.0712861 11.7650856,33.0712861 C12.2414853,33.0712861 12.7063423,33.0212816 13.1554592,32.9244645 C14.180663,35.7481195 16.855427,37.7600002 19.9929492,37.7600002 C23.0056002,37.7600002 25.5911704,35.9045163 26.7003212,33.2585367 C27.5450388,33.676659 28.4925915,33.9107223 29.4947098,33.9107223 C31.888251,33.9107223 33.9743361,32.5733695 35.0687962,30.5944704 C35.6249456,30.7072464 36.2010325,30.7678901 36.7897114,30.7678901 C41.6145701,30.7678901 45.5254549,26.7675349 45.5254549,21.8319903 C45.5254549,16.8975097 41.6145701,12.8960906 36.7897114,12.8960906 C35.5315545,12.8960906 34.3363579,13.1684552 33.2555392,13.6578604 Z" id="Fill-11" fill="#FFFFFF"></path>
    </g>
</svg>