<?xml version="1.0" encoding="UTF-8" standalone="no"?>
<svg
   xmlns:dc="http://purl.org/dc/elements/1.1/"
   xmlns:cc="http://creativecommons.org/ns#"
   xmlns:rdf="http://www.w3.org/1999/02/22-rdf-syntax-ns#"
   xmlns:svg="http://www.w3.org/2000/svg"
   xmlns="http://www.w3.org/2000/svg"
   xmlns:sodipodi="http://sodipodi.sourceforge.net/DTD/sodipodi-0.dtd"
   xmlns:inkscape="http://www.inkscape.org/namespaces/inkscape"
   version="1.1"
   x="0px"
   y="0px"
   viewBox="10 15 379.89797 179.165"
   id="svg2"
   inkscape:version="0.48.4 r9939"
   width="100%"
   height="100%"
   sodipodi:docname="logo_primary.svg">
  <metadata
     id="metadata66">
    <rdf:RDF>
      <cc:Work
         rdf:about="">
        <dc:format>image/svg+xml</dc:format>
        <dc:type
           rdf:resource="http://purl.org/dc/dcmitype/StillImage" />
      </cc:Work>
    </rdf:RDF>
  </metadata>
  <defs
     id="defs64" />
  <sodipodi:namedview
     pagecolor="#ffffff"
     bordercolor="#666666"
     borderopacity="1"
     objecttolerance="10"
     gridtolerance="10"
     guidetolerance="10"
     inkscape:pageopacity="0"
     inkscape:pageshadow="2"
     inkscape:window-width="1553"
     inkscape:window-height="812"
     id="namedview62"
     showgrid="false"
     inkscape:zoom="0.65"
     inkscape:cx="-29.648096"
     inkscape:cy="-31.516093"
     inkscape:window-x="0"
     inkscape:window-y="0"
     inkscape:window-maximized="0"
     inkscape:current-layer="svg2"
     fit-margin-top="60"
     fit-margin-left="0"
     fit-margin-right="0"
     fit-margin-bottom="30" />
  <g
     id="g4"
     transform="translate(-18.023012,4.854002)">
    <path
       d="m 89.307,117.439 c 0.098,-0.195 0.196,-0.195 0.294,-0.02 l 5.917,13.44 c 0.078,0.157 0.059,0.255 -0.118,0.255 h -1.273 c -0.176,0 -0.235,-0.02 -0.294,-0.177 l -1.352,-3.154 h -6.034 l -1.352,3.154 c -0.079,0.157 -0.118,0.177 -0.313,0.177 h -1.333 c -0.117,0 -0.137,-0.098 -0.059,-0.274 l 5.917,-13.401 z m -2.195,8.797 h 4.702 l -2.253,-5.309 c -0.079,-0.157 -0.118,-0.157 -0.177,-0.021 l -2.272,5.33 z"
       id="path6"
       inkscape:connector-curvature="0"
       style="fill:#ffffff" />
    <path
       d="m 101.063,131.115 c -0.274,0 -0.333,-0.039 -0.333,-0.313 v -13.205 c 0,-0.118 0.02,-0.196 0.137,-0.196 h 1.273 c 0.216,0 0.255,0.078 0.255,0.274 v 11.736 c 0,0.098 0.02,0.098 0.098,0.098 H 107 c 0.176,0 0.216,0.059 0.216,0.235 v 1.136 c 0,0.177 -0.04,0.235 -0.216,0.235 h -5.937 z"
       id="path8"
       inkscape:connector-curvature="0"
       style="fill:#ffffff" />
    <path
       d="m 115.622,131.115 c -0.157,0 -0.196,-0.02 -0.196,-0.216 v -11.774 c 0,-0.157 0,-0.196 -0.157,-0.196 h -4.31 c -0.157,0 -0.196,-0.02 -0.196,-0.156 v -1.195 c 0,-0.138 0.04,-0.177 0.177,-0.177 h 10.697 c 0.137,0 0.196,0.02 0.196,0.157 v 1.215 c 0,0.137 -0.059,0.156 -0.196,0.156 h -4.33 c -0.137,0 -0.157,0.039 -0.157,0.157 v 11.774 c 0,0.177 -0.02,0.255 -0.157,0.255 h -1.371 z"
       id="path10"
       inkscape:connector-curvature="0"
       style="fill:#ffffff" />
    <path
       d="m 132.825,117.145 c 3.918,0 7.131,3.175 7.131,7.093 0,3.919 -3.213,7.073 -7.131,7.073 -3.958,0 -7.151,-3.154 -7.151,-7.073 0,-3.918 3.193,-7.093 7.151,-7.093 z m 0,12.618 c 3.037,0 5.486,-2.469 5.486,-5.525 0,-3.056 -2.449,-5.545 -5.486,-5.545 -3.057,0 -5.525,2.488 -5.525,5.545 0,3.057 2.469,5.525 5.525,5.525 z"
       id="path12"
       inkscape:connector-curvature="0"
       style="fill:#ffffff" />
    <path
       d="m 152.105,129.763 c 1.391,0 2.605,-0.235 3.409,-0.686 v -4.389 c 0,-0.177 -0.04,-0.255 -0.196,-0.255 h -3.742 c -0.137,0 -0.196,-0.06 -0.196,-0.216 v -1.098 c 0,-0.137 0.118,-0.215 0.235,-0.215 h 5.231 c 0.274,0 0.313,0.059 0.313,0.255 v 6.622 c 0,0.255 -0.02,0.313 -0.274,0.45 -1.234,0.627 -3.095,1.078 -4.878,1.078 -3.938,-0.02 -7.073,-2.92 -7.073,-7.073 0,-4.153 3.213,-7.093 7.229,-7.093 1.666,0 3.194,0.412 4.526,1.117 0.157,0.078 0.215,0.137 0.215,0.294 v 1.176 c 0,0.137 -0.098,0.215 -0.313,0.059 -1.097,-0.666 -2.664,-1.098 -4.428,-1.098 -3.292,0 -5.544,2.488 -5.544,5.545 0,3.057 2.449,5.527 5.486,5.527 z"
       id="path14"
       inkscape:connector-curvature="0"
       style="fill:#ffffff" />
    <path
       d="m 164.274,117.557 c 0,-0.138 0.059,-0.157 0.176,-0.157 h 6.76 c 0.196,0 0.254,0.039 0.254,0.177 v 1.155 c 0,0.157 -0.02,0.196 -0.215,0.196 h -5.29 c -0.02,0 -0.039,0 -0.039,0.039 v 4.252 c 0,0.039 0,0.059 0.059,0.059 h 5.31 c 0.118,0 0.176,0.078 0.176,0.235 v 0.979 c 0,0.255 -0.059,0.313 -0.196,0.313 h -5.271 c -0.059,0 -0.078,0.02 -0.078,0.078 v 4.644 c 0,0.039 0.02,0.059 0.059,0.059 h 5.329 c 0.157,0 0.157,0.098 0.157,0.294 v 0.979 c 0,0.157 -0.078,0.255 -0.254,0.255 h -6.72 c -0.157,0 -0.216,-0.02 -0.216,-0.196 v -13.361 z"
       id="path16"
       inkscape:connector-curvature="0"
       style="fill:#ffffff" />
    <path
       d="m 181.732,131.115 c -0.157,0 -0.196,-0.02 -0.196,-0.216 v -11.774 c 0,-0.157 0,-0.196 -0.157,-0.196 h -4.31 c -0.157,0 -0.196,-0.02 -0.196,-0.156 v -1.195 c 0,-0.138 0.04,-0.177 0.177,-0.177 h 10.697 c 0.137,0 0.196,0.02 0.196,0.157 v 1.215 c 0,0.137 -0.059,0.156 -0.196,0.156 h -4.33 c -0.137,0 -0.157,0.039 -0.157,0.157 v 11.774 c 0,0.177 -0.02,0.255 -0.157,0.255 h -1.371 z"
       id="path18"
       inkscape:connector-curvature="0"
       style="fill:#ffffff" />
    <path
       d="m 193.9,131.115 c -0.157,0 -0.216,-0.039 -0.216,-0.177 v -13.322 c 0,-0.177 0.059,-0.216 0.196,-0.216 h 1.293 c 0.118,0 0.176,0.059 0.176,0.177 v 5.643 c 0,0.059 0,0.078 0.039,0.078 h 6.132 c 0.059,0 0.079,-0.039 0.079,-0.098 v -5.623 c 0,-0.118 0.078,-0.177 0.215,-0.177 h 1.215 c 0.176,0 0.235,0.118 0.235,0.255 v 13.264 c 0,0.118 -0.059,0.196 -0.177,0.196 h -1.214 c -0.216,0 -0.274,-0.059 -0.274,-0.255 v -5.897 c 0,-0.078 -0.039,-0.117 -0.118,-0.117 h -6.074 c -0.039,0 -0.059,0.02 -0.059,0.059 v 5.995 c 0,0.157 -0.059,0.216 -0.196,0.216 H 193.9 z"
       id="path20"
       inkscape:connector-curvature="0"
       style="fill:#ffffff" />
    <path
       d="m 209.967,117.557 c 0,-0.138 0.059,-0.157 0.176,-0.157 h 6.76 c 0.196,0 0.255,0.039 0.255,0.177 v 1.155 c 0,0.157 -0.02,0.196 -0.216,0.196 h -5.29 c -0.02,0 -0.039,0 -0.039,0.039 v 4.252 c 0,0.039 0,0.059 0.059,0.059 h 5.31 c 0.118,0 0.177,0.078 0.177,0.235 v 0.979 c 0,0.255 -0.059,0.313 -0.196,0.313 h -5.271 c -0.059,0 -0.078,0.02 -0.078,0.078 v 4.644 c 0,0.039 0.02,0.059 0.059,0.059 h 5.329 c 0.157,0 0.157,0.098 0.157,0.294 v 0.979 c 0,0.157 -0.078,0.255 -0.255,0.255 h -6.72 c -0.157,0 -0.216,-0.02 -0.216,-0.196 v -13.361 z"
       id="path22"
       inkscape:connector-curvature="0"
       style="fill:#ffffff" />
    <path
       d="m 226.622,117.4 c 3.801,0 4.977,1.47 4.977,3.82 0,1.822 -0.667,3.233 -2.508,3.821 l 4.741,5.818 c 0.078,0.099 0.098,0.255 -0.117,0.255 h -1.549 c -0.156,0 -0.215,-0.059 -0.312,-0.177 l -4.585,-5.603 h -1.842 c -0.196,0 -0.216,0.059 -0.216,0.215 v 5.329 c 0,0.138 -0.02,0.235 -0.176,0.235 h -1.273 c -0.156,0 -0.196,-0.059 -0.196,-0.235 v -13.244 c 0,-0.196 0.079,-0.235 0.235,-0.235 h 2.821 z m -1.411,6.191 c 0,0.196 0.02,0.235 0.196,0.235 h 1.273 c 2.175,0 3.194,-0.745 3.194,-2.469 0,-1.764 -1.059,-2.43 -3.214,-2.43 h -1.234 c -0.196,0 -0.216,0.02 -0.216,0.216 v 4.448 z"
       id="path24"
       inkscape:connector-curvature="0"
       style="fill:#ffffff" />
    <path
       d="m 251.996,131.311 c -1.234,0 -2.429,-0.274 -3.154,-0.646 -0.176,-0.099 -0.195,-0.157 -0.195,-0.313 v -1.254 c 0,-0.118 0.098,-0.138 0.215,-0.079 0.765,0.529 1.842,0.823 2.803,0.823 1.979,0 2.958,-0.823 2.958,-2.43 0,-1.979 -1.646,-2.586 -3.135,-3.252 -1.47,-0.666 -2.704,-1.548 -2.704,-3.723 0,-1.979 1.293,-3.232 3.703,-3.232 1.195,0 2.194,0.273 2.821,0.627 0.118,0.078 0.157,0.156 0.157,0.273 v 1.215 c 0,0.099 -0.118,0.138 -0.196,0.079 -0.666,-0.471 -1.45,-0.765 -2.488,-0.765 -1.626,0 -2.331,0.745 -2.331,1.9 0,1.431 1.136,1.92 2.469,2.547 1.547,0.726 3.311,1.607 3.311,4.291 -0.001,2.763 -1.746,3.939 -4.234,3.939 z"
       id="path26"
       inkscape:connector-curvature="0"
       style="fill:#ffffff" />
    <path
       d="m 273.804,131.115 c -0.157,0 -0.196,-0.039 -0.196,-0.255 v -9.6 c 0,-0.138 -0.098,-0.118 -0.176,-0.021 l -4.604,5.428 c -0.196,0.215 -0.313,0.215 -0.47,0.039 l -4.624,-5.446 c -0.118,-0.118 -0.216,-0.079 -0.216,0.137 v 9.502 c 0,0.177 -0.02,0.216 -0.156,0.216 h -1.215 c -0.196,0 -0.235,-0.059 -0.235,-0.235 v -13.421 c 0,-0.176 0.157,-0.156 0.216,-0.098 l 6.27,7.093 c 0.156,0.195 0.215,0.195 0.353,0.059 l 6.19,-7.054 c 0.157,-0.176 0.275,-0.098 0.275,0.079 v 13.381 c 0,0.138 -0.02,0.196 -0.157,0.196 h -1.255 z"
       id="path28"
       inkscape:connector-curvature="0"
       style="fill:#ffffff" />
    <path
       d="m 286.031,117.439 c 0.098,-0.195 0.195,-0.195 0.294,-0.02 l 5.917,13.44 c 0.078,0.157 0.059,0.255 -0.117,0.255 h -1.273 c -0.177,0 -0.236,-0.02 -0.295,-0.177 l -1.352,-3.154 h -6.034 l -1.353,3.154 c -0.078,0.157 -0.117,0.177 -0.312,0.177 h -1.333 c -0.117,0 -0.137,-0.098 -0.059,-0.274 l 5.917,-13.401 z m -2.194,8.797 h 4.702 l -2.253,-5.309 c -0.079,-0.157 -0.118,-0.157 -0.177,-0.021 l -2.272,5.33 z"
       id="path30"
       inkscape:connector-curvature="0"
       style="fill:#ffffff" />
    <path
       d="m 300.903,117.4 c 3.801,0 4.977,1.47 4.977,3.82 0,1.822 -0.667,3.233 -2.508,3.821 l 4.741,5.818 c 0.078,0.099 0.098,0.255 -0.117,0.255 h -1.549 c -0.156,0 -0.215,-0.059 -0.312,-0.177 l -4.585,-5.603 h -1.842 c -0.196,0 -0.216,0.059 -0.216,0.215 v 5.329 c 0,0.138 -0.02,0.235 -0.176,0.235 h -1.273 c -0.156,0 -0.196,-0.059 -0.196,-0.235 v -13.244 c 0,-0.196 0.079,-0.235 0.235,-0.235 h 2.821 z m -1.411,6.191 c 0,0.196 0.02,0.235 0.196,0.235 h 1.273 c 2.175,0 3.194,-0.745 3.194,-2.469 0,-1.764 -1.059,-2.43 -3.214,-2.43 h -1.234 c -0.196,0 -0.216,0.02 -0.216,0.216 v 4.448 z"
       id="path32"
       inkscape:connector-curvature="0"
       style="fill:#ffffff" />
    <path
       d="m 316.285,131.115 c -0.157,0 -0.196,-0.02 -0.196,-0.216 v -11.774 c 0,-0.157 0,-0.196 -0.157,-0.196 h -4.31 c -0.157,0 -0.196,-0.02 -0.196,-0.156 v -1.195 c 0,-0.138 0.039,-0.177 0.177,-0.177 H 322.3 c 0.138,0 0.196,0.02 0.196,0.157 v 1.215 c 0,0.137 -0.059,0.156 -0.196,0.156 h -4.33 c -0.138,0 -0.157,0.039 -0.157,0.157 v 11.774 c 0,0.177 -0.02,0.255 -0.156,0.255 h -1.372 z"
       id="path34"
       inkscape:connector-curvature="0"
       style="fill:#ffffff" />
    <path
       d="m 327.885,117.557 c 0,-0.138 0.059,-0.157 0.177,-0.157 h 6.759 c 0.196,0 0.255,0.039 0.255,0.177 v 1.155 c 0,0.157 -0.02,0.196 -0.216,0.196 h -5.289 c -0.02,0 -0.039,0 -0.039,0.039 v 4.252 c 0,0.039 0,0.059 0.059,0.059 h 5.309 c 0.118,0 0.177,0.078 0.177,0.235 v 0.979 c 0,0.255 -0.059,0.313 -0.196,0.313 h -5.27 c -0.059,0 -0.078,0.02 -0.078,0.078 v 4.644 c 0,0.039 0.02,0.059 0.059,0.059 h 5.328 c 0.157,0 0.157,0.098 0.157,0.294 v 0.979 c 0,0.157 -0.078,0.255 -0.255,0.255 h -6.72 c -0.157,0 -0.216,-0.02 -0.216,-0.196 v -13.361 z"
       id="path36"
       inkscape:connector-curvature="0"
       style="fill:#ffffff" />
    <path
       d="m 344.148,117.4 c 3.801,0 4.977,1.47 4.977,3.82 0,1.822 -0.667,3.233 -2.508,3.821 l 4.74,5.818 c 0.078,0.099 0.099,0.255 -0.117,0.255 h -1.548 c -0.157,0 -0.216,-0.059 -0.313,-0.177 l -4.584,-5.603 h -1.842 c -0.196,0 -0.216,0.059 -0.216,0.215 v 5.329 c 0,0.138 -0.02,0.235 -0.177,0.235 h -1.273 c -0.156,0 -0.195,-0.059 -0.195,-0.235 v -13.244 c 0,-0.196 0.078,-0.235 0.234,-0.235 h 2.822 z m -1.411,6.191 c 0,0.196 0.02,0.235 0.196,0.235 h 1.273 c 2.174,0 3.193,-0.745 3.193,-2.469 0,-1.764 -1.059,-2.43 -3.213,-2.43 h -1.234 c -0.196,0 -0.216,0.02 -0.216,0.216 v 4.448 z"
       id="path38"
       inkscape:connector-curvature="0"
       style="fill:#ffffff" />
    <path
       d="m 37.156,73.841 c -4.16,0 -6.737,-1.176 -7.686,-1.719 -0.859,-0.994 -1.447,-4.249 -1.447,-7.324 0.316,-0.587 1.356,-0.633 1.718,-0.136 0.904,2.939 3.934,7.099 7.776,7.099 3.346,0 4.883,-2.306 4.883,-4.566 0,-3.662 -3.436,-5.832 -6.148,-7.188 -3.255,-1.628 -6.827,-4.341 -6.827,-8.816 -0.045,-5.109 3.934,-8.636 10.489,-8.636 1.492,0 3.346,0.182 5.154,0.724 0.587,0.181 0.995,0.271 1.537,0.361 0.361,0.995 0.813,3.437 0.813,6.466 -0.226,0.542 -1.356,0.588 -1.763,0.136 -0.769,-2.306 -2.712,-5.606 -5.968,-5.606 -2.984,0 -4.612,1.944 -4.612,4.205 0,2.079 1.854,3.979 4.114,5.153 l 2.984,1.583 c 2.803,1.492 6.375,4.114 6.375,9.087 10e-4,5.56 -4.565,9.177 -11.392,9.177 z"
       id="path40"
       inkscape:connector-curvature="0"
       style="fill:#ffffff" />
    <path
       d="m 88.43,43.73 c 0,0.813 0.136,4.431 0.542,7.053 -0.181,0.543 -1.401,0.724 -1.718,0.316 -1.221,-4.204 -4.114,-6.465 -8.5,-6.465 -5.019,0 -10.398,4.295 -10.398,13.292 0,8.997 5.199,13.835 10.625,13.835 5.471,0 8.002,-3.934 9.223,-7.008 0.362,-0.361 1.447,-0.226 1.718,0.316 -0.316,3.346 -1.085,6.059 -1.718,7.099 -2.441,0.678 -5.651,1.673 -9.178,1.673 -4.431,0 -8.952,-1.04 -12.162,-3.437 -3.255,-2.486 -5.742,-6.239 -5.742,-11.846 0,-5.516 2.351,-9.403 5.471,-11.98 3.21,-2.668 7.821,-4.024 12.523,-4.024 4.613,0 7.958,1.085 9.314,1.176 z"
       id="path42"
       inkscape:connector-curvature="0"
       style="fill:#ffffff" />
    <path
       d="m 133.918,58.062 c 0,9.856 -6.601,15.779 -16.321,15.779 -9.088,0 -15.688,-5.968 -15.688,-15.417 0,-8.952 6.691,-15.87 16.141,-15.87 9.403,0 15.868,6.33 15.868,15.508 z M 117.687,44.634 c -5.561,0 -8.545,5.199 -8.545,12.75 0,5.516 1.944,14.377 9.313,14.377 5.923,0 8.229,-5.787 8.229,-13.111 0,-7.732 -3.391,-14.016 -8.997,-14.016 z"
       id="path44"
       inkscape:connector-curvature="0"
       style="fill:#ffffff" />
    <path
       d="m 156.303,46.668 c 0,-1.085 0,-1.311 -1.085,-1.311 h -2.803 c -3.3,0 -4.25,1.809 -5.606,5.108 -0.542,0.271 -1.402,0.181 -1.673,-0.406 0.949,-3.12 1.175,-5.923 1.492,-7.687 0.181,-0.136 0.407,-0.226 0.633,-0.226 0.226,0 0.452,0.045 0.633,0.181 0.226,0.769 0.362,0.949 3.798,0.949 h 16.819 c 2.984,0 3.662,-0.045 4.069,-0.994 0.181,-0.091 0.316,-0.136 0.588,-0.136 0.271,0 0.588,0.181 0.678,0.316 -0.452,1.537 -0.769,5.199 -0.678,7.776 -0.226,0.406 -1.447,0.497 -1.673,0.136 -0.769,-2.894 -1.402,-5.019 -4.792,-5.019 h -2.713 c -1.085,0 -1.221,0.136 -1.221,1.311 v 19.938 c 0,4.205 0.271,4.566 2.306,4.838 l 1.808,0.227 c 0.316,0.271 0.316,1.311 0,1.582 -2.938,-0.091 -5.199,-0.136 -7.234,-0.136 -2.17,0 -4.521,0.045 -7.686,0.136 -0.361,-0.271 -0.361,-1.312 0,-1.582 l 2.035,-0.227 c 2.035,-0.226 2.306,-0.633 2.306,-4.838 V 46.668 z"
       id="path46"
       inkscape:connector-curvature="0"
       style="fill:#ffffff" />
    <path
       d="m 196.229,46.668 c 0,-1.085 0,-1.311 -1.085,-1.311 h -2.803 c -3.3,0 -4.25,1.809 -5.606,5.108 -0.542,0.271 -1.402,0.181 -1.673,-0.406 0.949,-3.12 1.175,-5.923 1.492,-7.687 0.181,-0.136 0.407,-0.226 0.633,-0.226 0.226,0 0.452,0.045 0.633,0.181 0.226,0.769 0.362,0.949 3.798,0.949 h 16.819 c 2.984,0 3.662,-0.045 4.069,-0.994 0.181,-0.091 0.316,-0.136 0.588,-0.136 0.271,0 0.588,0.181 0.678,0.316 -0.452,1.537 -0.769,5.199 -0.678,7.776 -0.226,0.406 -1.447,0.497 -1.673,0.136 -0.769,-2.894 -1.401,-5.019 -4.792,-5.019 h -2.713 c -1.085,0 -1.221,0.136 -1.221,1.311 v 19.938 c 0,4.205 0.271,4.566 2.306,4.838 l 1.808,0.227 c 0.317,0.271 0.317,1.311 0,1.582 -2.938,-0.091 -5.199,-0.136 -7.234,-0.136 -2.17,0 -4.521,0.045 -7.686,0.136 -0.361,-0.271 -0.361,-1.312 0,-1.582 l 2.035,-0.227 c 2.035,-0.226 2.306,-0.633 2.306,-4.838 V 46.668 z"
       id="path48"
       inkscape:connector-curvature="0"
       style="fill:#ffffff" />
    <path
       d="m 240.615,50.06 c 0,-4.748 -0.09,-5.471 -2.938,-5.697 l -1.13,-0.09 c -0.271,-0.182 -0.182,-0.995 0.09,-1.131 2.532,0.091 4.069,0.136 5.878,0.136 1.763,0 3.3,-0.045 5.562,-0.136 0.271,0.136 0.361,0.949 0.09,1.131 l -1.085,0.09 c -2.667,0.227 -2.758,0.949 -2.758,5.697 v 15.733 c 0,2.849 0.136,4.023 0.949,4.883 0.497,0.497 1.356,1.04 4.929,1.04 3.842,0 4.792,-0.181 5.516,-0.588 0.904,-0.543 2.08,-2.17 2.983,-4.476 0.271,-0.227 1.13,-0.046 1.13,0.271 0,0.498 -1.266,5.109 -1.898,6.33 -2.306,-0.091 -6.601,-0.136 -11.258,-0.136 h -4.159 c -1.899,0 -3.346,0.045 -5.878,0.136 -0.271,-0.136 -0.361,-0.859 -0.09,-1.131 l 1.355,-0.135 c 2.623,-0.271 2.713,-0.904 2.713,-5.652 V 50.06 z"
       id="path50"
       inkscape:connector-curvature="0"
       style="fill:#ffffff" />
    <path
       d="m 270.008,58.514 c 0,-9.042 6.781,-15.96 16.096,-15.96 10.443,0 15.688,7.551 15.688,15.508 0,9.133 -6.963,15.779 -15.688,15.779 -10.038,0 -16.096,-7.188 -16.096,-15.327 z m 27.262,0.949 c 0,-7.46 -3.3,-15.507 -11.936,-15.507 -4.701,0 -10.805,3.21 -10.805,13.111 0,6.691 3.254,15.372 12.161,15.372 5.426,0.001 10.58,-4.068 10.58,-12.976 z"
       id="path52"
       inkscape:connector-curvature="0"
       style="fill:#ffffff" />
    <path
       d="m 340.362,68.506 c 0,1.809 0.271,2.894 1.085,3.21 0.136,0.136 0.136,0.406 -0.045,0.542 -0.543,0 -1.356,0.182 -2.216,0.407 -2.396,0.633 -5.651,1.176 -8.093,1.176 -5.381,0 -10.309,-1.492 -13.789,-5.019 -2.713,-2.713 -4.16,-6.284 -4.16,-10.264 0,-3.843 1.266,-7.73 4.069,-10.715 3.029,-3.165 7.505,-5.29 14.332,-5.29 2.577,0 4.974,0.498 5.741,0.679 0.859,0.181 2.262,0.497 2.804,0.406 0,1.492 0.271,3.844 0.679,6.556 -0.137,0.362 -0.949,0.407 -1.221,0.136 -1.267,-4.883 -4.657,-6.42 -9.27,-6.42 -8.771,0 -12.613,6.239 -12.613,13.021 0,8.681 4.476,15.508 13.563,15.508 2.804,0 4.476,-0.588 4.974,-1.356 0.226,-0.316 0.451,-1.131 0.451,-2.577 v -1.809 c 0,-3.798 -0.135,-4.069 -2.938,-4.386 l -1.989,-0.226 c -0.361,-0.182 -0.316,-0.995 0,-1.131 1.312,0.091 3.798,0.136 6.465,0.136 1.764,0 3.301,-0.045 4.793,-0.136 0.316,0.181 0.361,0.859 0.045,1.131 l -0.723,0.09 c -1.899,0.227 -1.944,1.492 -1.944,3.798 v 2.533 z"
       id="path54"
       inkscape:connector-curvature="0"
       style="fill:#ffffff" />
    <path
       d="m 359.627,50.15 c 0,-4.792 -0.09,-5.561 -2.758,-5.787 l -1.13,-0.09 c -0.271,-0.182 -0.181,-0.995 0.091,-1.131 2.26,0.091 3.797,0.136 5.696,0.136 1.809,0 3.346,-0.045 5.606,-0.136 0.271,0.136 0.361,0.949 0.09,1.131 l -1.13,0.09 c -2.667,0.227 -2.758,0.995 -2.758,5.787 v 16.096 c 0,4.792 0.091,5.426 2.758,5.742 l 1.13,0.135 c 0.271,0.182 0.182,0.995 -0.09,1.131 -2.261,-0.091 -3.798,-0.136 -5.606,-0.136 -1.899,0 -3.437,0.045 -5.696,0.136 -0.271,-0.136 -0.362,-0.859 -0.091,-1.131 l 1.13,-0.135 c 2.668,-0.316 2.758,-0.95 2.758,-5.742 V 50.15 z"
       id="path56"
       inkscape:connector-curvature="0"
       style="fill:#ffffff" />
    <path
       d="m 384.451,46.398 c 3.301,-2.577 7.506,-3.844 12.207,-3.844 2.441,0 5.878,0.498 8.003,1.085 0.542,0.136 0.859,0.227 1.267,0.182 0.045,1.039 0.271,3.888 0.633,6.646 -0.227,0.316 -0.904,0.362 -1.221,0.091 -0.679,-3.074 -2.713,-6.601 -9.269,-6.601 -6.917,0 -12.795,4.385 -12.795,13.744 0,9.494 6.013,14.739 13.428,14.739 5.832,0 8.409,-3.798 9.449,-6.466 0.316,-0.226 0.995,-0.136 1.175,0.181 -0.316,2.352 -1.491,5.335 -2.17,6.194 -0.542,0.091 -1.084,0.271 -1.582,0.452 -0.994,0.361 -4.25,1.04 -7.144,1.04 -4.069,0 -7.957,-0.814 -11.258,-3.029 -3.616,-2.486 -6.42,-6.601 -6.42,-12.434 10e-4,-5.018 2.262,-9.313 5.697,-11.98 z"
       id="path58"
       inkscape:connector-curvature="0"
       style="fill:#ffffff" />
    <rect
       x="28.077999"
       y="94.338997"
       width="379.84299"
       height="0.75400001"
       id="rect60"
       style="fill:#ffffff" />
  </g>
</svg>
