<svg width="128" height="128" xmlns="http://www.w3.org/2000/svg"><path d="M37.602 87.44L25.75 92.382l-4.772-8.264 10.206-7.794A35.155 35.155 0 0 1 29.256 61.7l-11.872-4.885 2.47-9.218 12.724 1.706a35.155 35.155 0 0 1 8.982-11.701L36.618 25.75l8.264-4.772 7.794 10.206A35.155 35.155 0 0 1 67.3 29.256l4.885-11.872 9.218 2.47-1.706 12.724a35.155 35.155 0 0 1 11.701 8.982l11.852-4.942 4.772 8.264-10.206 7.794A35.155 35.155 0 0 1 99.744 67.3l11.872 4.885-2.47 9.218-12.724-1.706a35.155 35.155 0 0 1-8.982 11.701l4.942 11.852-8.264 4.772-7.794-10.206A35.155 35.155 0 0 1 61.7 99.744l-4.885 11.872-9.218-2.47 1.706-12.724a35.155 35.155 0 0 1-11.701-8.982zm21.466-2.667c11.196 3 22.705-3.644 25.705-14.84 3-11.197-3.644-22.706-14.84-25.706-11.197-3-22.706 3.644-25.706 14.84-3 11.197 3.644 22.706 14.84 25.706z" fill="#D8D8D8" fill-rule="evenodd"/></svg>