<?xml version="1.0" encoding="UTF-8"?>
<svg width="31px" height="35px" viewBox="0 0 31 35" version="1.1" xmlns="http://www.w3.org/2000/svg" xmlns:xlink="http://www.w3.org/1999/xlink">
    <!-- Generator: Sketch 59.1 (86144) - https://sketch.com -->
    <title>notifications copy</title>
    <desc>Created with Sketch.</desc>
    <g id="🚀-Launchbar" stroke="none" stroke-width="1" fill="none" fill-rule="evenodd">
        <g id="launcher/launcher--minimum-size/exploration/square/minimalistic--wide--without-fav/search-active" transform="translate(-747.000000, -25.000000)" fill="#504CFF">
            <g id="icons-copy-2" transform="translate(570.000000, 21.000000)">
                <g id="icons/notifications--bell/white" transform="translate(176.000000, 0.000000)">
                    <path d="M24.1539293,29.3304909 C24.1624156,29.4158989 24.1667606,29.5025253 24.1667606,29.5901666 C24.1667606,31.023238 23.0050267,32.1849719 21.5719553,32.1849719 C20.1388839,32.1849719 18.97715,31.023238 18.97715,29.5901666 C18.97715,29.5025253 18.981495,29.4158989 18.9899813,29.3304909 Z M9.52731397,28.17808 C8.41270288,28.17808 7.50913207,27.2745092 7.50913207,26.1598981 C7.50913207,25.045287 8.41270288,24.1417162 9.52731397,24.1417162 L9.52731397,15.4923652 L9.53114695,15.2367455 C9.64868498,11.3225102 12.456519,8.08440789 16.168745,7.30834248 C16.161537,7.25059877 16.1584831,7.19131899 16.1584831,7.13132592 C16.1584831,6.17594499 16.9329723,5.40145572 17.8883533,5.40145572 C18.8437342,5.40145572 19.6182235,6.17594499 19.6182235,7.13132592 C19.6182235,7.19131899 19.6151695,7.25059877 19.6092085,7.30901827 C23.4011471,8.10176659 26.2493926,11.4644442 26.2493926,15.4923652 L26.2493926,15.4923652 L26.2493926,24.1417162 C27.3640036,24.1417162 28.2675745,25.045287 28.2675745,26.1598981 C28.2675745,27.2745092 27.3640036,28.17808 26.2493926,28.17808 L9.52731397,28.17808 Z" id="Combined-Shape" transform="translate(17.888353, 18.793214) rotate(-340.000000) translate(-17.888353, -18.793214) "></path>
                </g>
            </g>
        </g>
    </g>
</svg>