<svg xmlns="http://www.w3.org/2000/svg" viewBox="0 0 178.91 130.73"><defs><style>.cls-1{fill:#fff;}</style></defs><title>mark_white</title><g id="Layer_2" data-name="Layer 2"><g id="Layer_1-2" data-name="Layer 1"><path class="cls-1" d="M164.39,62.38a40.34,40.34,0,1,0-10.44,10.77,26.14,26.14,0,0,0,18.71,7.58h6.25v-15h-6.25A11.55,11.55,0,0,1,164.39,62.38ZM105.51,40.25a25.27,25.27,0,1,1,48.73,9.37c-5.15-6.48-11.93-12.69-23.34-12.69h-3.83v15h3.83c5.78,0,9,3.44,13.55,9.58a25.25,25.25,0,0,1-38.94-21.24Z"/><path class="cls-1" d="M79.93,65.53H74.1a1.72,1.72,0,0,1-1.72-1.72V16.7A1.72,1.72,0,0,1,74.1,15h5.83V0H49.85V15h5.83A1.72,1.72,0,0,1,57.4,16.7V63.81a1.72,1.72,0,0,1-1.72,1.72H49.85v15H79.93Z"/><rect class="cls-1" x="21.6" width="6.63" height="130.73"/><rect class="cls-1" y="102.32" width="178.91" height="6.63"/></g></g></svg>