<?xml version="1.0" encoding="utf-8"?>
<!-- Svg Vector Icons : http://www.onlinewebfonts.com/icon -->
<!DOCTYPE svg PUBLIC "-//W3C//DTD SVG 1.1//EN" "http://www.w3.org/Graphics/SVG/1.1/DTD/svg11.dtd">
<svg version="1.1" xmlns="http://www.w3.org/2000/svg" xmlns:xlink="http://www.w3.org/1999/xlink" x="0px" y="0px" viewBox="0 0 1000 1000" enable-background="new 0 0 1000 1000" xml:space="preserve">
<metadata> Svg Vector Icons : http://www.onlinewebfonts.com/icon </metadata>
<g><path fill="#FFFFFF" d="M821.6,500.3H990L738.8,751.5L487.7,500.3h230.9c1.5-78.1-27.9-155.8-87.8-215.6C512.1,166,319.2,166,200.5,284.7c-118.7,118.7-118.7,312,0,430.8c93.4,93.4,233.4,113.1,346,59.4l74.6,74.6c-154.8,91.8-357.7,71.5-492.7-62.4C-29.8,628.7-29.3,372,129,213.7c159.8-158.8,415-159.3,573.8-0.5C782,292.3,821.6,396.3,821.6,500.3z"/></g>
</svg>