<?xml version="1.0" encoding="UTF-8"?>
<svg width="28px" height="29px" viewBox="0 0 28 29" version="1.1" xmlns="http://www.w3.org/2000/svg" xmlns:xlink="http://www.w3.org/1999/xlink">
    <!-- Generator: Sketch 48.1 (47250) - http://www.bohemiancoding.com/sketch -->
    <title>Group</title>
    <desc>Created with Sketch.</desc>
    <defs></defs>
    <g id="launch-bar-/-app-/-symphony" stroke="none" stroke-width="1" fill="none" fill-rule="evenodd" transform="translate(-6.000000, -6.000000)">
        <g id="Group" transform="translate(6.000000, 6.000000)" fill="#FFFFFF" fill-rule="nonzero">
            <path d="M3.54069767,16.9576651 C3.54069767,18.7385537 3.95709082,20.4200826 4.69668788,21.9036508 L14.1627907,16.9576651 L3.54069767,16.9576651" id="Fill-9"></path>
            <path d="M9.91395349,22.6741389 C11.1072028,23.5227149 12.5750122,24.0233589 14.1627907,24.0233589 L14.1627907,16.9576651 L9.91395349,22.6741389" id="Fill-10"></path>
            <path d="M20.5360465,1.23418404 C18.5236865,0.439055694 16.3163518,0 14.0012263,0 C13.0921374,0 12.2004851,0.0678952103 11.3302326,0.197650501 L14.0012263,16.2510958 L20.5360465,1.23418404" id="Fill-11" fill-opacity="0.799999952"></path>
            <path d="M14.2948269,16.2495948 L27.9079005,16.2495948 C27.9079005,13.1660759 26.943284,10.3155409 25.3082895,7.99977435 L14.2948269,16.2495948" id="Fill-12"></path>
            <path d="M2.1051692,8.54939753 C0.770479794,10.7901088 0,13.4272055 0,16.2495948 L14.2948269,16.2495948 L2.1051692,8.54939753" id="Fill-14" fill-opacity="0.699999988"></path>
            <path d="M14.8709302,7.06569381 C12.7542765,7.06569381 10.7963719,7.76709015 9.20581395,8.95497692 L14.8709302,16.9576651 L14.8709302,7.06569381" id="Fill-16"></path>
            <path d="M14.1627907,28.9693446 C16.8093653,28.9693446 19.2568315,28.1173681 21.244186,26.6751042 L14.1627907,16.9576651 L14.1627907,28.9693446" id="Fill-17" fill-opacity="0.699999988"></path>
            <path d="M23.9560348,14.837957 L14.1627907,16.2729936 L23.3232964,19.7839427 C23.808501,18.7021908 24.0767442,17.5167892 24.0767442,16.2729936 C24.0767442,15.7846724 24.0349298,15.3058402 23.9560348,14.837957" id="Fill-18" fill-opacity="0.699999988"></path>
        </g>
    </g>
</svg>